<svg width="83" height="26" viewBox="0 0 83 26" fill="none" xmlns="http://www.w3.org/2000/svg">
<g id="Logo">
<g id="Icon">
<path d="M15.8344 19.915C15.9613 21.4307 15.4484 22.9906 14.2936 24.1555C13.1389 25.3205 11.5837 25.8472 10.0668 25.7337C9.93989 24.2179 10.4528 22.658 11.6076 21.4931C12.7623 20.3281 14.3176 19.8014 15.8344 19.915Z" fill="white"/>
<path d="M13.0869 17.8086C11.5731 19.4275 9.38614 20.398 6.99854 20.2889C4.6112 20.1799 2.52205 19.0143 1.1621 17.2645C2.6759 15.6457 4.86282 14.6752 7.25042 14.7842C9.63777 14.8933 11.7269 16.0588 13.0869 17.8086Z" fill="white"/>
<path d="M0.272217 12.5987C0.588443 8.80801 2.50092 5.17431 5.83222 2.7808C9.1634 0.38737 13.2172 -0.265831 16.9106 0.643774C16.5943 4.43447 14.6818 8.06817 11.3505 10.4617C8.01937 12.8551 3.96558 13.5083 0.272217 12.5987Z" fill="white"/>
</g>
<g id="Leafe">
<path d="M61.6785 7.95019V10.2585H63.0636V22.3264H65.5257V10.2585H68.7574V7.95019H65.5257V5.58816C65.5257 4.911 65.5873 4.36734 65.7104 3.95691C65.8335 3.54657 65.9977 3.25934 66.2029 3.09513C66.4285 2.9105 66.6953 2.81819 67.0031 2.81819C67.2493 2.81819 67.5058 2.8695 67.7725 2.97202C68.0598 3.05412 68.306 3.26954 68.5112 3.61838L69.8653 1.58708C69.7217 1.38186 69.5166 1.18694 69.2499 1.00232C69.0037 0.817604 68.7061 0.663691 68.3573 0.54058C68.0085 0.417468 67.6083 0.355957 67.157 0.355957C66.2952 0.355957 65.5565 0.540579 64.941 0.909915C64.3459 1.25875 63.8843 1.7922 63.5559 2.51037C63.2277 3.22854 63.0636 4.15183 63.0636 5.28034V7.95019H61.6785Z" fill="white"/>
<path d="M23.0129 3.24418L23.0129 22.3264H34.0929V19.8641H25.629V3.24418H23.0129Z" fill="white"/>
<path fill-rule="evenodd" clip-rule="evenodd" d="M40.6545 22.6341C42.1729 22.6341 43.4861 22.3366 44.5941 21.7415C45.7226 21.126 46.6562 20.2231 47.3949 19.0331L45.3943 17.7712C44.8813 18.633 44.2556 19.2793 43.5169 19.7102C42.7782 20.1205 41.9266 20.3257 40.9623 20.3257C39.9979 20.3257 39.1772 20.1205 38.5001 19.7102C37.823 19.2998 37.31 18.7048 36.9612 17.9251C36.6961 17.3326 36.5318 16.6452 36.4682 15.863H47.6103V15.586C47.6308 15.4219 47.6411 15.268 47.6411 15.1243C47.6411 13.6265 47.3743 12.3339 46.8408 11.2464C46.3074 10.1589 45.5379 9.32788 44.5325 8.75333C43.5476 8.15836 42.3576 7.86083 40.9623 7.86083C39.5671 7.86083 38.336 8.16857 37.269 8.78413C36.2226 9.39969 35.4018 10.2615 34.8067 11.3695C34.2323 12.4775 33.9451 13.7701 33.9451 15.2475C33.9451 16.7043 34.222 17.9866 34.776 19.0946C35.3505 20.2026 36.1405 21.0747 37.1459 21.7108C38.1718 22.3264 39.3414 22.6341 40.6545 22.6341ZM36.992 12.3544C36.7953 12.7709 36.6509 13.2428 36.5586 13.7701H44.9497C44.9024 13.0958 44.7325 12.5009 44.4402 11.985C44.1119 11.3695 43.6502 10.8873 43.0551 10.5385C42.4602 10.1897 41.7625 10.0152 40.9623 10.0152C40.0184 10.0152 39.208 10.2205 38.5309 10.6308C37.8742 11.0206 37.3613 11.5952 36.992 12.3544Z" fill="white"/>
<path fill-rule="evenodd" clip-rule="evenodd" d="M57.6637 14.5641C57.2768 14.3102 56.7843 14.0867 56.1864 13.8932C55.5093 13.647 54.6578 13.5239 53.6318 13.5239C51.8878 13.5239 50.5233 13.9445 49.5384 14.7858C48.574 15.6065 48.0919 16.7043 48.0919 18.079C48.0919 19.0433 48.3176 19.8641 48.769 20.5412C49.2204 21.2183 49.8155 21.7415 50.5541 22.1108C51.3133 22.4597 52.1238 22.6341 52.9856 22.6341C53.7652 22.6341 54.5449 22.4905 55.3246 22.2032C56.1249 21.9159 56.7917 21.4748 57.3252 20.8798C57.4527 20.7428 57.5655 20.5976 57.6637 20.4443V22.3264H60.126V12.1697C60.126 11.2464 59.8899 10.4667 59.4181 9.83062C58.9667 9.19456 58.3203 8.71232 57.4791 8.38408C56.6583 8.03525 55.6939 7.86083 54.5859 7.86083C53.2728 7.86083 52.1443 8.05575 51.2004 8.44559C50.2771 8.83543 49.5487 9.22527 49.0152 9.61511L50.2155 11.431C50.4412 11.2669 50.7491 11.0719 51.1389 10.8462C51.5287 10.6205 52.0007 10.4256 52.5546 10.2615C53.1292 10.0973 53.7652 10.0152 54.4629 10.0152C54.8938 10.0152 55.3041 10.0563 55.6939 10.1384C56.0838 10.2205 56.4224 10.3538 56.7096 10.5385C57.0174 10.7231 57.2534 10.9796 57.4175 11.3079C57.5816 11.6157 57.6637 12.0158 57.6637 12.5083V14.5641ZM50.9542 16.6325C50.708 17.0018 50.5848 17.443 50.5848 17.9559C50.5848 18.4894 50.708 18.951 50.9542 19.3409C51.221 19.7307 51.58 20.0282 52.0315 20.2334C52.5033 20.4181 53.0369 20.5105 53.6318 20.5105C54.391 20.5105 55.0682 20.3565 55.6632 20.0487C56.2788 19.741 56.7609 19.3101 57.1098 18.7561C57.4791 18.1815 57.6637 17.525 57.6637 16.7863V16.2538C57.2695 16.062 56.8694 15.9112 56.4634 15.8014C55.7042 15.5758 54.8938 15.4629 54.032 15.4629C53.2318 15.4629 52.5751 15.5655 52.0622 15.7707C51.5697 15.9758 51.2004 16.2631 50.9542 16.6325Z" fill="white"/>
<path fill-rule="evenodd" clip-rule="evenodd" d="M79.4413 21.7415C78.3333 22.3366 77.0201 22.6341 75.5018 22.6341C74.1886 22.6341 73.019 22.3264 71.9931 21.7108C70.9877 21.0747 70.1977 20.2026 69.6233 19.0946C69.0692 17.9866 68.7923 16.7043 68.7923 15.2475C68.7923 13.7701 69.0795 12.4775 69.654 11.3695C70.249 10.2615 71.0698 9.39969 72.1162 8.78413C73.1832 8.16857 74.4143 7.86083 75.8096 7.86083C77.2048 7.86083 78.3948 8.15836 79.3797 8.75333C80.3851 9.32788 81.1546 10.1589 81.6881 11.2464C82.2216 12.3339 82.4883 13.6265 82.4883 15.1243C82.4883 15.268 82.478 15.4219 82.4575 15.586V15.863H71.3154C71.379 16.6452 71.5434 17.3326 71.8085 17.9251C72.1573 18.7048 72.6703 19.2998 73.3473 19.7102C74.0244 20.1205 74.8452 20.3257 75.8096 20.3257C76.7739 20.3257 77.6255 20.1205 78.3641 19.7102C79.1028 19.2793 79.7286 18.633 80.2415 17.7712L82.2421 19.0331C81.5034 20.2231 80.5698 21.126 79.4413 21.7415ZM71.4058 13.7701C71.4981 13.2428 71.6427 12.7709 71.8393 12.3544C72.2085 11.5952 72.7216 11.0206 73.3781 10.6308C74.0552 10.2205 74.8657 10.0152 75.8096 10.0152C76.6098 10.0152 77.3074 10.1897 77.9024 10.5385C78.4974 10.8873 78.9591 11.3695 79.2874 11.985C79.5797 12.5009 79.7496 13.0958 79.7969 13.7701H71.4058Z" fill="white"/>
</g>
</g>
</svg>
