<svg width="135" height="64" viewBox="0 0 135 64" fill="none" xmlns="http://www.w3.org/2000/svg">
<path d="M51.2112 42.4001C48.8314 42.4001 46.9751 41.7417 45.6424 40.4248C44.3255 39.108 43.6671 37.2279 43.6671 34.7846V25.4556H47.5224V34.6418C47.5224 37.6245 48.76 39.1159 51.235 39.1159C52.4408 39.1159 53.361 38.7589 53.9956 38.045C54.6302 37.3151 54.9476 36.1807 54.9476 34.6418V25.4556H58.7553V34.7846C58.7553 37.2279 58.089 39.108 56.7562 40.4248C55.4394 41.7417 53.591 42.4001 51.2112 42.4001Z" fill="black"/>
<path d="M60.6374 33.9278H67.3724V36.9026H60.6374V33.9278Z" fill="black"/>
<path d="M71.9562 28.597H66.6254V25.4556H81.1424V28.597H75.8116V42.1145H71.9562V28.597Z" fill="black"/>
<path d="M94.385 29.3109V42.1145H90.8628V40.5914C90.371 41.1467 89.7839 41.5751 89.1017 41.8765C88.4195 42.1621 87.6817 42.3049 86.8885 42.3049C85.2067 42.3049 83.874 41.821 82.8903 40.8532C81.9066 39.8854 81.4148 38.4495 81.4148 36.5457V29.3109H85.1274V35.9983C85.1274 38.0608 85.992 39.0921 87.7214 39.0921C88.6099 39.0921 89.3238 38.8065 89.8633 38.2353C90.4027 37.6483 90.6724 36.7836 90.6724 35.6413V29.3109H94.385Z" fill="black"/>
<path d="M100.18 31.0006C100.625 30.3819 101.22 29.9138 101.965 29.5965C102.727 29.2792 103.6 29.1205 104.583 29.1205V32.5475C104.171 32.5158 103.893 32.4999 103.75 32.4999C102.687 32.4999 101.854 32.8014 101.251 33.4043C100.648 33.9913 100.347 34.8798 100.347 36.0697V42.1145H96.6345V29.3109H100.18V31.0006Z" fill="black"/>
<path d="M113.383 29.1205C114.969 29.1205 116.247 29.5965 117.214 30.5484C118.198 31.5004 118.69 32.9124 118.69 34.7846V42.1145H114.977V35.3557C114.977 34.3403 114.755 33.5867 114.311 33.0949C113.867 32.5872 113.224 32.3333 112.383 32.3333C111.447 32.3333 110.702 32.6268 110.146 33.2139C109.591 33.785 109.313 34.6418 109.313 35.7841V42.1145H105.601V29.3109H109.147V30.8102C109.639 30.2708 110.249 29.8583 110.979 29.5727C111.709 29.2713 112.51 29.1205 113.383 29.1205Z" fill="black"/>
<path fill-rule="evenodd" clip-rule="evenodd" d="M27.0814 21.1262C27.7146 20.4931 28.7411 20.4931 29.3742 21.1262L35.303 27.0551L29.3472 32.7402C28.6995 33.3584 27.6733 33.3345 27.0551 32.6869C26.4369 32.0392 26.4607 31.013 27.1084 30.3948L28.937 28.6493H24.9854C21.8218 28.6493 19.2572 31.2139 19.2572 34.3775C19.2572 37.5412 21.8218 40.1058 24.9854 40.1058H32.9833C33.8787 40.1058 34.6045 40.8316 34.6045 41.727C34.6045 42.6224 33.8787 43.3482 32.9833 43.3482H24.9854C20.031 43.3482 16.0147 39.3319 16.0147 34.3775C16.0147 29.4232 20.031 25.4069 24.9854 25.4069H29.0694L27.0814 23.4189C26.4483 22.7858 26.4483 21.7593 27.0814 21.1262Z" fill="black"/>
</svg>
